<?xml version="1.0" encoding="UTF-8"?><svg id="Layer_1" xmlns="http://www.w3.org/2000/svg" viewBox="0 0 1134.48 855.18"><defs><style>.cls-1{fill:#231f20;}</style></defs><polygon class="cls-1" points="892.61 855.18 0 855.18 241.87 581.63 1134.48 581.63 892.61 855.18"/><path class="cls-1" d="M241.87,0V581.63h892.61V0H241.87Zm838.54,520.04H305.76V63.7h774.65v456.34Z"/><polygon class="cls-1" points="571.43 302.37 506.31 276.38 447.98 315.29 452.58 245.32 397.55 201.87 465.51 184.62 489.83 118.86 527.24 178.16 597.3 180.97 552.45 234.87 571.43 302.37"/><polygon class="cls-1" points="917.06 312.23 856.37 277.11 793.04 307.19 807.68 238.62 759.5 187.68 829.24 180.42 862.8 118.86 891.25 182.94 960.17 195.83 908.02 242.7 917.06 312.23"/><path class="cls-1" d="M482.54,389.05c38.03,63.38,281.69,132.39,411.27,12.68-71.83,14.08-249.3,52.11-411.27-12.68Z"/></svg>